<?xml version="1.0" encoding="UTF-8"?>
<svg viewBox="0 0 437.5 437.5" xmlns="http://www.w3.org/2000/svg" xmlns:xlink="http://www.w3.org/1999/xlink">
 <defs>
  <linearGradient id="ac" x1=".72727" x2=".65455" y1=".83594" y2=".078125" xlink:href="#a"/>
  <linearGradient id="aj" x1=".33119" x2=".57235" y1=".98415" y2=".29365" xlink:href="#a"/>
  <linearGradient id="ab" x1=".69274" x2=".24022" y1=".57031" y2=".03125" xlink:href="#a"/>
  <linearGradient id="aa" xlink:href="#t"/>
  <linearGradient id="u" x1=".8169" x2=".76056" y1=".625" y2="-.046875" xlink:href="#a"/>
  <linearGradient id="ad" x1=".51486" x2=".70297" y1=".41406" y2="-.023438" gradientTransform="scale(1)" xlink:href="#a"/>
  <linearGradient id="ai" x1=".32259" x2=".61291" y1=".71875" y2=".14062" xlink:href="#a"/>
  <linearGradient id="ae" x1=".6047" x2=".67442" y1=".70312" y2=".22656" xlink:href="#a"/>
  <linearGradient id="ah" x1=".87226" x2=".38766" y1=".89845" y2=".23438" xlink:href="#a"/>
  <linearGradient id="af" x1=".1077" x2=".46154" y1=".64844" y2=".007812" xlink:href="#a"/>
  <linearGradient id="ag" x1=".74016" x2=".40158" y1=".6875" y2=".14062" xlink:href="#a"/>
  <linearGradient id="z" x1=".43038" x2=".40506" y1=".35937" y2=".85156" xlink:href="#t"/>
  <linearGradient id="y">
   <stop stop-color="#ee8f00" offset="0"/>
   <stop stop-color="#fa3a00" offset="1"/>
  </linearGradient>
  <linearGradient id="a">
   <stop stop-color="#fff" stop-opacity="0" offset="0"/>
   <stop stop-color="#faff3a" offset="1"/>
  </linearGradient>
  <linearGradient id="t">
   <stop stop-color="#7f0000" stop-opacity=".522" offset="0"/>
   <stop stop-color="#7d0000" stop-opacity="0" offset="1"/>
  </linearGradient>
  <linearGradient id="b" x1=".42458" x2=".98883" y1=".73438" y2=".015625" xlink:href="#a"/>
  <linearGradient id="x">
   <stop stop-color="#ff7f00" offset="0"/>
   <stop stop-color="#fa5700" offset="1"/>
  </linearGradient>
  <linearGradient id="v">
   <stop stop-color="#ffcfad" offset="0"/>
   <stop stop-color="#fad7a5" offset="1"/>
  </linearGradient>
  <linearGradient id="w">
   <stop stop-color="#450000" offset="0"/>
   <stop stop-color="#fa3a00" offset="1"/>
  </linearGradient>
 </defs>
 <g fill-rule="evenodd">
  <g stroke-linejoin="bevel">
   <path d="m178.75 154.66c12.661-14.068 28.487-18.64 40.444-27.08-5.6271-9.8472-32.707-10.199-41.851-8.7922-6.3305 4.9237-26.025 17.584-36.576 26.025 14.771 4.9237 21.805 5.6271 37.982 9.8473z" fill="url(#v)" stroke="#b16800" stroke-width="6.25"/>
   <path d="m167.5 140.59c11.957-7.7371 34.465-16.178 41.499-18.991-26.728-7.7372-43.609-28.838-47.126-42.202-18.991 7.7371-37.279 24.618-33.059 35.169 9.8472 9.1438 26.025 20.398 38.686 26.025z" fill="url(#w)" stroke="#680000" stroke-width="10"/>
  </g>
  <path d="m223.06 376.22c94.252 2.1101 178.66-66.821 193.43-140.68 10.551-58.38 13.364-98.473 11.254-109.73-3.5168 9.8473-7.0337 21.805-11.254 33.059 1.4067-45.719-10.551-86.515-30.245-97.066-2.11 9.8473 2.8135 21.805 8.4406 33.059-12.661-17.584-17.755-58.963-104.97-59.666 16.881 7.0337 20.568 13.947 29.009 18.87-10.55 2.1102-19.694 4.2203-31.652 6.3304 19.694 9.1439 67.524 22.508 78.778 51.346 4.9237 16.881 7.7372 22.508 7.0338 21.805-8.4406-6.3304-14.771-12.661-18.991-14.068 6.3301 33.059 5.6269 54.863 4.9236 75.965-9.1439-9.1439-9.8474-11.957-16.178-21.805 2.1102 37.982-4.2203 75.965-17.584 85.812-0.7034-10.551 1.4067-17.584 1.4067-24.618-7.0337 5.6271-30.245 56.974-77.371 53.457-47.126-3.5169-61.194-18.288-75.261-26.728 16.881-4.9236 35.169 2.1101 53.457-11.254 6.3304-4.9237 23.915-15.474 35.872-14.771 6.3304-7.0337 2.1102-16.178-6.3304-22.508-11.254-2.8135-27.432-4.9236-44.313 4.2203-9.8473 4.9237-42.906 3.5169-52.753-10.551-9.1439-13.364-14.771-29.542-3.5168-30.245 11.254-0.7034 23.915 2.8135 34.465 6.3304-7.0338-14.068-14.048-23.318-16.881-29.542-6.6158-16.78-14.771-19.694-11.957-46.423 4.9236-26.728 18.288-44.313 26.728-50.643-16.178-2.8135-39.389 11.254-52.05 21.805-4.9236-2.8135-13.346-4.5304-21.101-4.2202-9.8294 0.39314-17.584 2.1101-23.211 5.627-10.551-4.2202-18.991-33.521-22.508-45.478-16.178-2.8135-28.135 53.215-23.211 77.13-7.7371 12.661-27.432 31.652-23.211 48.533 4.2202 1.4067 7.7371 0.70329 14.068-3.517-10.551 13.364-16.178 48.533-4.2202 88.625 19.694 60.49 87.219 131.53 189.91 131.53z" fill="url(#x)" stroke="#6b0000" stroke-width="10"/>
  <path d="m238.54 323.47c89.329-21.805 131.53-75.965 135.75-82.295-1.4068 15.474-27.432 98.473-112.54 113.95-95.659 11.957-23.211-30.245-23.211-31.652z" fill="url(#b)"/>
  <path d="m335.5 282.9c58.035-64.468 52.08-122.33 50.789-128.69 10.599 10.47 52.013 77.148-7.3131 135.26-70.816 61.918-42.405-5.6887-43.476-6.5678z" fill="url(#af)"/>
  <path d="m332.86 249.15c18.222-31.765 15.58-59.807 15.081-62.883 3.5947 4.9971 17.949 37.031-0.77231 65.72-22.436 30.63-13.948-2.4189-14.308-2.837z" fill="url(#b)"/>
  <path d="m384.04 205.34c31.981-29.86 40.68-64.152 41.417-68.002 1.7077 7.4336 3.5923 54.392-27.653 80.402-35.912 26.733-13.558-11.752-13.764-12.4z" fill="url(#b)"/>
  <path d="m379.03 164.69c19.001-45.92 17.051-87.135 16.628-91.664 3.4703 7.4578 24.987 70.866 5.5634 112.26-23.186 44.103-21.842-19.968-22.192-20.594z" fill="url(#ai)"/>
  <path d="m357.72 219.89c12.083-48.204 4.1283-88.692 3.0481-93.11 4.5233 6.8702 41.791 36.95 28.627 80.736-16.488 47.019-31.237 12.942-31.675 12.374z" fill="url(#ae)"/>
  <path d="m365.86 83.172c-35.865-34.399-74.968-47.572-79.34-48.825 8.2092-0.52055 57.381 4.1204 88.874 37.267 32.651 37.637-8.8236 11.46-9.5343 11.558z" fill="url(#ah)"/>
  <path d="m125.97 126.73c-58.035-64.468-54.069-75.58-57.752-88.901-10.599 10.47-44.055 74.163 15.271 132.27 70.816 61.918 47.379-37.52 42.481-43.373z" fill="url(#u)"/>
  <path d="m388.57 167.13c-16.806-97.584-67.62-98.708-88.485-105.93 19.043-1.5563 60.764-8.3415 92.516 50.19 22.867 44.269 8.6199 53.821-4.031 55.739z" fill="url(#ag)"/>
  <path d="m213.92 321.36c94.252 2.1101 124.5-71.744 111.13-61.897-0.7034-10.551 1.4067-17.584 1.4067-24.618-7.0337 5.6271-30.245 56.974-77.371 53.457-47.126-3.5169-61.194-18.288-75.261-26.728 16.881-4.9236 35.276 2.2518 53.457-11.254 6.4373-4.782 23.915-15.474 35.872-14.771 6.3304-7.0337 3.0502-18.153-6.3304-22.508-10.314-4.7886-27.326-4.7202-44.313 4.2203-9.7414 5.1271-49.897 0.77849-58.38-14.068-8.3977-14.696-9.1438-26.025 2.1102-26.728 11.254-0.7034 23.915 2.8135 34.465 6.3304-7.0338-14.068-18.288-30.948-26.025-44.313-2.1101-10.551-7.7371-4.9237-2.8134-31.652s18.288-44.313 26.728-50.643c-16.178-2.8135-39.389 11.254-52.05 21.805-4.9236-2.8135-13.346-4.5304-21.101-4.2202-9.8294 0.39314-20.037 3.4886-26.025 6.3304-35.511 16.853-68.931 63.304-64.711 80.185 11.957-10.551 18.288-4.9237 32.355-15.474-10.551 13.364-12.661 64.007-1.4067 91.439 13.364 30.949 55.567 85.108 158.26 85.109z" fill="url(#y)"/>
  <path d="m150.97 177.17c-31.652 0-48.181 4.2403-48.181 23.915 0 14.088 28.838 41.499 46.423 49.236 14.068 3.517 2.6615-18.364-2.8134-26.728-10.106-16.143 0.70331-39.037 4.5719-46.423z" fill="url(#z)"/>
  <path d="m174.53 261.22c-18.288-11.957-20.398-22.86-25.322-32.707 13.364 7.7371 26.728 12.661 35.872 13.364 19.695 0 35.169 4.2202 61.897-8.4406 0.7034 2.8135-3.5169 6.3304-11.957 13.364-11.957 6.3304-20.75 10.199-24.97 10.902-14.068 2.8135-20.75 0.70349-35.52 3.5169z" fill="url(#aa)"/>
  <path d="m226.58 121.6c0 5.05-5.8259 9.1439-13.012 9.1439-7.1866 0-13.012-4.0939-13.012-9.1439 0-5.0501 5.8259-9.1439 13.012-9.1439 7.1866 0 13.012 4.0938 13.012 9.1439z"/>
  <path d="m101.41 140.23c0.989-52.898 27.155-41.831 23.097-63.286-19.837 1.0324-35.993-1.3149-68.664 43.624 13.351 93.116 33.53 24.309 45.566 19.662z" fill="url(#u)"/>
  <path d="m143.19 155.15c0.98889-52.898 22.181-71.672 32.05-95.117-20.831 10.98-64.84 32.506-97.511 77.445 13.351 93.116 53.424 22.32 65.461 17.672z" fill="url(#ad)"/>
  <path d="m99.81 251.98c-18.105-81.126 17.562-127.99 22.051-132.85-14.971 4.2216-86.976 42.77-64.382 119.03 30.875 84.659 40.912 14.093 42.331 13.819z" fill="url(#ac)"/>
  <path d="m195.81 279.7c-89.329-21.805-131.53-75.965-135.75-82.295 1.4068 15.474 27.432 98.473 112.54 113.95 95.659 11.957 23.211-30.245 23.211-31.652z" fill="url(#ab)"/>
  <path d="m174.98 226.38c35.892 7.2698 61.668-10.054 64.429-11.497-3.6076 4.9877-8.5873 33.689-41.718 24.975-10.282-2.6742-22-8.0301-22.712-13.478z" fill="url(#aj)"/>
 </g>
</svg>
